<svg id="Layer_1" data-name="Layer 1" xmlns="http://www.w3.org/2000/svg" viewBox="0 0 56 56"><defs><style>.cls-1{fill:#2ba2fa;}.cls-2{fill:#fff;}</style></defs><title>basket</title><g id="Desktop"><g id="_02-coupons-tooltip-hover-desktop" data-name="02-coupons-tooltip-hover-desktop"><g id="Desktop-Background-7"><g id="CATEGORIES-_-Other-brands-_-Registration---Desktop---ok-_-products-_-Favorite-brands-_-Top-offers-_-Basket-button-_-Banner-Tile-Horizontal-2-_-Browse-_-Articles-intro-_-Bloc-principal-_-header-Mask" data-name="CATEGORIES-+-Other-brands-+-Registration---Desktop---ok-+-products-+-Favorite-brands-+-Top-offers-+-Basket-button-+-Banner-Tile-Horizontal-2-+-Browse-+-Articles-intro-+-Bloc-principal-+-header-Mask"><g id="Basket-button"><g id="Rectangle-Copy-8"><rect id="path-1" width="56" height="56" rx="4.67" ry="4.67"/><rect id="path-1-2" data-name="path-1" class="cls-1" width="56" height="56" rx="4.67" ry="4.67"/></g><path id="Shape-Copy-3" class="cls-2" d="M49.56,29l-4,16.27c-.43,1.32-1.3,2.2-2.17,2.2H21.65c-.87,0-1.74-.88-2.17-2.2L15.44,29a1.73,1.73,0,0,1-1.61-1.76,1.75,1.75,0,0,1,1.74-1.76h7.94L31.72,17a1,1,0,0,1,1.52,0l8.25,8.49h7.94a1.75,1.75,0,0,1,1.74,1.76A1.8,1.8,0,0,1,49.56,29ZM32.5,19.34l-5.95,6.11H38.45Z" transform="translate(-4.5 -4.5)"/></g></g></g></g></g></svg>